<svg width="28" height="28" viewBox="0 0 28 28" fill="none" xmlns="http://www.w3.org/2000/svg">
<g clip-path="url(#clip0_353_310)">
<path fill-rule="evenodd" clip-rule="evenodd" d="M3.01041 22.4558C6.32986 25.7753 11.7118 25.7753 15.0312 22.4558L9.37437 16.799L15.3745 10.7988C15.2643 10.675 15.1499 10.5537 15.0312 10.435C11.7118 7.11557 6.32986 7.11557 3.01041 10.435C-0.309051 13.7545 -0.309051 19.1364 3.01041 22.4558Z" fill="#129D20"/>
<path fill-rule="evenodd" clip-rule="evenodd" d="M19.2604 2.6703C18.789 2.63193 18.315 2.63275 17.8437 2.67274L13.9705 6.54593L14.6777 7.25304L19.2604 2.6703ZM20.4847 2.86017L15.3848 7.96014L16.0919 8.66725L21.5707 3.1884C21.215 3.0543 20.8521 2.94489 20.4847 2.86017ZM17.5061 10.0815L16.799 9.37436L22.5452 3.62812C22.846 3.78753 23.1393 3.96627 23.4232 4.16435L17.5061 10.0815ZM18.2132 10.7886L12.213 16.7887C12.3232 16.9125 12.4376 17.0338 12.5563 17.1525C12.675 17.2712 12.7963 17.3857 12.9201 17.4959L24.9205 5.49549C24.8103 5.37172 24.6958 5.2504 24.5772 5.13172C24.4585 5.01303 24.3371 4.89859 24.2134 4.78839L18.2132 10.7886ZM14.5883 18.6561C14.2874 18.4967 13.9942 18.318 13.7103 18.1199L25.5445 6.28567C25.7426 6.56955 25.9213 6.86282 26.0807 7.16366L14.5883 18.6561ZM15.5628 19.0958C15.9185 19.2299 16.2813 19.3394 16.6488 19.4241L26.8487 9.22413C26.764 8.85672 26.6546 8.49384 26.5205 8.13815L15.5628 19.0958ZM19.2897 19.6115C18.8185 19.6515 18.3445 19.6523 17.8731 19.6139L27.0386 10.4485C27.0769 10.9199 27.0761 11.3938 27.0361 11.8651L19.2897 19.6115ZM21.0391 19.2764C22.3339 18.884 23.5536 18.1761 24.5771 17.1525C25.6007 16.129 26.3087 14.9093 26.701 13.6145L21.0391 19.2764ZM12.5563 5.13171C13.5799 4.10815 14.7996 3.40021 16.0944 3.00788L13.2634 5.83882L12.5563 5.13171Z" fill="#129D20"/>
</g>
<defs>
<clipPath id="clip0_353_310">
<rect width="28" height="28" fill="white"/>
</clipPath>
</defs>
</svg>
