<svg width="24" height="24" viewBox="0 0 24 24" fill="none" xmlns="http://www.w3.org/2000/svg">
<path d="M5.68551 4.24543C5.15811 4.6754 4.6754 5.15811 4.24543 5.68551L5.04142 8.05026C4.71846 8.61803 4.46298 9.22918 4.2859 9.87281L2.05118 10.9819C2.01734 11.3167 2 11.6563 2 12C2 12.3437 2.01734 12.6833 2.05118 13.0181L4.2859 14.1272C4.46298 14.7708 4.71846 15.382 5.04142 15.9497L4.24543 18.3145C4.6754 18.8419 5.15811 19.3246 5.68551 19.7546L8.05026 18.9586C8.61803 19.2815 9.22918 19.537 9.87281 19.7141L10.9819 21.9488C11.3167 21.9827 11.6563 22 12 22C12.3437 22 12.6833 21.9827 13.0181 21.9488L14.1272 19.7141C14.7708 19.537 15.382 19.2815 15.9497 18.9586L18.3145 19.7546C18.8419 19.3246 19.3246 18.8419 19.7546 18.3145L18.9586 15.9497C19.2815 15.382 19.537 14.7708 19.7141 14.1272L21.9488 13.0181C21.9827 12.6833 22 12.3437 22 12C22 11.6563 21.9827 11.3167 21.9488 10.9819L19.7141 9.87281C19.537 9.22918 19.2815 8.61803 18.9586 8.05026L19.7546 5.68551C19.3246 5.15811 18.8419 4.6754 18.3145 4.24543L15.9497 5.04142C15.382 4.71846 14.7708 4.46298 14.1272 4.2859L13.0181 2.05118C12.6833 2.01734 12.3437 2 12 2C11.6563 2 11.3167 2.01734 10.9819 2.05118L9.87281 4.2859C9.22918 4.46298 8.61803 4.71846 8.05026 5.04142L5.68551 4.24543Z" stroke="black" stroke-width="2" stroke-linejoin="round"/>
<circle cx="12" cy="12" r="4" stroke="black" stroke-width="2"/>
</svg>
